<svg width="24" height="24" viewBox="0 0 24 24" fill="none" xmlns="http://www.w3.org/2000/svg">
<path d="M7 18L5 18L5 3L7 3L7 18Z" fill="#83C777"/>
<path d="M4.99988 18L2.99988 18L2.99988 3L4.99988 3L4.99988 18Z" fill="#97DB77"/>
<path fill-rule="evenodd" clip-rule="evenodd" d="M1.89984 19L1.89984 3.99998C1.89984 2.84018 2.84004 1.89998 3.99984 1.89998L5.99984 1.89998C7.15964 1.89998 8.09984 2.84018 8.09984 3.99998L8.09984 19C8.09984 20.7121 6.71192 22.1 4.99984 22.1C3.28776 22.1 1.89984 20.7121 1.89984 19ZM2.99984 19C2.99984 20.1045 3.89527 21 4.99984 21C6.10441 21 6.99984 20.1045 6.99984 19L6.99984 3.99998C6.99984 3.44769 6.55213 2.99998 5.99984 2.99998L3.99984 2.99998C3.44756 2.99998 2.99984 3.44769 2.99984 3.99998L2.99984 19Z" fill="#262626"/>
<path d="M6.96436 18.9904L5.2323 17.9904L12.7323 4.99997L14.4644 5.99997L6.96436 18.9904Z" fill="#EBBF00"/>
<path d="M5.23181 17.9904L3.49976 16.9904L10.9998 3.99997L12.7318 4.99997L5.23181 17.9904Z" fill="#FFD300"/>
<path fill-rule="evenodd" clip-rule="evenodd" d="M2.65974 16.2454L9.54717 4.31599C10.1271 3.31158 11.4114 2.96744 12.4158 3.54734L14.1479 4.54734C15.1523 5.12724 15.4964 6.41158 14.9165 7.41599L8.0291 19.3454C7.17306 20.8281 5.27713 21.3361 3.79442 20.4801C2.31171 19.624 1.8037 17.7281 2.65974 16.2454ZM3.61237 16.7954C3.06008 17.752 3.38783 18.9751 4.34442 19.5274C5.30101 20.0797 6.52419 19.752 7.07647 18.7954L13.9639 6.86599C14.24 6.3877 14.0762 5.77611 13.5979 5.49997L11.8658 4.49997C11.3875 4.22383 10.7759 4.3877 10.4998 4.86599L3.61237 16.7954Z" fill="#262626"/>
<path d="M6.59827 19.9642L5.59827 18.2321L18.5886 10.7321L19.5886 12.4642L6.59827 19.9642Z" fill="#E84757"/>
<path d="M5.59814 18.2321L4.59814 16.5L17.5885 9.00001L18.5885 10.7321L5.59814 18.2321Z" fill="#FC5B57"/>
<path fill-rule="evenodd" clip-rule="evenodd" d="M4.11766 15.5075L16.1729 8.54741C17.1773 7.96752 18.4616 8.31165 19.0415 9.31607L20.0415 11.0481C20.6214 12.0525 20.2773 13.3369 19.2729 13.9168L7.21766 20.8769C5.73495 21.7329 3.83902 21.2249 2.98298 19.7422C2.12694 18.2595 2.63496 16.3635 4.11766 15.5075ZM4.66766 16.4601C3.71108 17.0124 3.38333 18.2356 3.93561 19.1922C4.4879 20.1488 5.71108 20.4765 6.66766 19.9242L18.7229 12.9641C19.2012 12.688 19.365 12.0764 19.0889 11.5981L18.0889 9.86607C17.8128 9.38778 17.2012 9.2239 16.7229 9.50004L4.66766 16.4601Z" fill="#262626"/>
<path d="M7 21.0001L7 19.0001L21 19.0001L21 21.0001L7 21.0001Z" fill="#48A9FF"/>
<path d="M7 19.0001L7 17.0001L21 17.0001L21 19.0001L7 19.0001Z" fill="#52BDFF"/>
<path d="M2.99994 19C2.99994 17.8954 3.89537 17 4.99994 17H6.99994V21H4.99994C3.89537 21 2.99994 20.1046 2.99994 19Z" fill="white"/>
<path fill-rule="evenodd" clip-rule="evenodd" d="M4.99984 15.9H19.9998C21.1596 15.9 22.0998 16.8402 22.0998 18V20C22.0998 21.1598 21.1596 22.1 19.9998 22.1H4.99984C3.28776 22.1 1.89984 20.7121 1.89984 19C1.89984 17.2879 3.28776 15.9 4.99984 15.9ZM4.99984 17C3.89527 17 2.99984 17.8955 2.99984 19C2.99984 20.1046 3.89527 21 4.99984 21H19.9998C20.5521 21 20.9998 20.5523 20.9998 20V18C20.9998 17.4477 20.5521 17 19.9998 17H4.99984Z" fill="#262626"/>
<circle cx="5" cy="19" r="1" fill="#DEDEDE"/>
<line x1="7.25" y1="17" x2="7.25" y2="21" stroke="#262626" stroke-width="0.5"/>
</svg>
